<svg xmlns="http://www.w3.org/2000/svg" xmlns:xlink="http://www.w3.org/1999/xlink">
<defs>
<symbol viewBox="0 0 16 16" id="bi:x-diamond"><path fill="currentColor" d="M7.987 16a1.53 1.53 0 0 1-1.07-.448L.45 9.082a1.53 1.53 0 0 1 0-2.165L6.917.45a1.53 1.53 0 0 1 2.166 0l6.469 6.468A1.53 1.53 0 0 1 16 8.013a1.53 1.53 0 0 1-.448 1.07l-6.47 6.469A1.53 1.53 0 0 1 7.988 16zM7.639 1.17L4.766 4.044L8 7.278l3.234-3.234L8.361 1.17a.51.51 0 0 0-.722 0M8.722 8l3.234 3.234l2.873-2.873c.2-.2.2-.523 0-.722l-2.873-2.873zM8 8.722l-3.234 3.234l2.873 2.873c.2.2.523.2.722 0l2.873-2.873zM7.278 8L4.044 4.766L1.17 7.639a.51.51 0 0 0 0 .722l2.874 2.873z"></path></symbol>
<symbol viewBox="0 0 24 24" id="material-symbols-light:arrow-right-alt-rounded"><path fill="currentColor" d="M17.073 12.5H5.5q-.213 0-.357-.143T5 12t.143-.357t.357-.143h11.573l-3.735-3.734q-.146-.147-.152-.345t.152-.363q.166-.166.357-.168t.357.162l4.383 4.383q.13.13.183.267t.053.298t-.053.298t-.183.268l-4.383 4.382q-.146.146-.347.153t-.367-.159q-.16-.165-.162-.354t.162-.354z"></path></symbol>
</defs>
</svg>